<svg width="12" height="19" viewBox="0 0 12 19" fill="none" xmlns="http://www.w3.org/2000/svg">
<path d="M3.27267 18.5455C2.67018 19.148 1.69335 19.148 1.09085 18.5455C0.488362 17.943 0.488362 16.9661 1.09085 16.3636L8.72722 8.72728C9.32971 8.12479 10.3065 8.12479 10.909 8.72728C11.5115 9.32978 11.5115 10.3066 10.909 10.9091L3.27267 18.5455Z" fill="#CCCCCC"/>
<path d="M1.09078 3.27269C0.488293 2.6702 0.488293 1.69337 1.09079 1.09088C1.69328 0.488385 2.67011 0.488384 3.2726 1.09088L10.909 8.72728C11.5115 9.32978 11.5115 10.3066 10.909 10.9091C10.3065 11.5116 9.32964 11.5116 8.72715 10.9091L1.09078 3.27269Z" fill="#CCCCCC"/>
</svg>
