<svg width="23" height="24" viewBox="0 0 23 24" fill="none" xmlns="http://www.w3.org/2000/svg">
<path fill-rule="evenodd" clip-rule="evenodd" d="M13.2836 13.3382C15.5103 11.1115 15.5103 7.50122 13.2836 5.2745C11.0569 3.04778 7.44666 3.04778 5.21994 5.2745C2.99322 7.50122 2.99322 11.1115 5.21994 13.3382C7.44666 15.5649 11.0569 15.5649 13.2836 13.3382ZM15.4049 15.4595C18.8032 12.0612 18.8032 6.55148 15.4049 3.15318C12.0066 -0.245112 6.49691 -0.245112 3.09862 3.15318C-0.299677 6.55148 -0.299677 12.0612 3.09862 15.4595C6.49691 18.8578 12.0066 18.8578 15.4049 15.4595Z" fill="white"/>
<path d="M13.7671 16.2477C13.1813 15.6619 13.1813 14.7122 13.7671 14.1264C14.3529 13.5406 15.3027 13.5406 15.8884 14.1264L22.3019 20.5399C22.8877 21.1257 22.8877 22.0754 22.3019 22.6612C21.7161 23.247 20.7664 23.247 20.1806 22.6612L13.7671 16.2477Z" fill="white"/>
</svg>
